<mxfile host="app.diagrams.net" modified="2023-04-11T09:01:52.006Z" agent="Mozilla/5.0 (Windows NT 10.0; Win64; x64) AppleWebKit/537.36 (KHTML, like Gecko) Chrome/111.0.0.0 Safari/537.36" etag="Yg0LK7xMl6fUHZe0wAqm" version="21.1.5" type="device">
  <diagram name="Сторінка-1" id="IjTr09E3GgoYkBD2KoK0">
    <mxGraphModel dx="942" dy="1852" grid="1" gridSize="10" guides="1" tooltips="1" connect="1" arrows="1" fold="1" page="1" pageScale="1" pageWidth="827" pageHeight="1169" math="0" shadow="0">
      <root>
        <mxCell id="0" />
        <mxCell id="1" parent="0" />
        <mxCell id="ANrUcxHGb1ZzqYueDWLF-7" value="" style="ellipse;whiteSpace=wrap;html=1;aspect=fixed;" parent="1" vertex="1">
          <mxGeometry x="452.5" y="432.68000000000006" width="50" height="50" as="geometry" />
        </mxCell>
        <mxCell id="ANrUcxHGb1ZzqYueDWLF-11" value="1" style="text;html=1;strokeColor=none;fillColor=none;align=center;verticalAlign=middle;whiteSpace=wrap;rounded=0;" parent="1" vertex="1">
          <mxGeometry x="465" y="447.68000000000006" width="25" height="20" as="geometry" />
        </mxCell>
        <mxCell id="ANrUcxHGb1ZzqYueDWLF-14" value="" style="ellipse;whiteSpace=wrap;html=1;aspect=fixed;" parent="1" vertex="1">
          <mxGeometry x="376.5" y="350" width="50" height="50" as="geometry" />
        </mxCell>
        <mxCell id="ANrUcxHGb1ZzqYueDWLF-15" value="3" style="text;html=1;strokeColor=none;fillColor=none;align=center;verticalAlign=middle;whiteSpace=wrap;rounded=0;" parent="1" vertex="1">
          <mxGeometry x="389" y="365" width="25" height="20" as="geometry" />
        </mxCell>
        <mxCell id="ANrUcxHGb1ZzqYueDWLF-16" value="" style="endArrow=none;html=1;rounded=0;exitX=0;exitY=0;exitDx=0;exitDy=0;entryX=1;entryY=1;entryDx=0;entryDy=0;" parent="1" source="ANrUcxHGb1ZzqYueDWLF-7" target="ANrUcxHGb1ZzqYueDWLF-14" edge="1">
          <mxGeometry width="50" height="50" relative="1" as="geometry">
            <mxPoint x="438.5" y="380" as="sourcePoint" />
            <mxPoint x="400" y="380" as="targetPoint" />
          </mxGeometry>
        </mxCell>
        <mxCell id="ANrUcxHGb1ZzqYueDWLF-19" value="" style="ellipse;whiteSpace=wrap;html=1;aspect=fixed;" parent="1" vertex="1">
          <mxGeometry x="452.5" y="584.9999999999999" width="50" height="50" as="geometry" />
        </mxCell>
        <mxCell id="ANrUcxHGb1ZzqYueDWLF-20" value="4" style="text;html=1;strokeColor=none;fillColor=none;align=center;verticalAlign=middle;whiteSpace=wrap;rounded=0;" parent="1" vertex="1">
          <mxGeometry x="465" y="599.9999999999999" width="25" height="20" as="geometry" />
        </mxCell>
        <mxCell id="ANrUcxHGb1ZzqYueDWLF-21" value="" style="endArrow=none;html=1;rounded=0;exitX=0.5;exitY=1;exitDx=0;exitDy=0;entryX=0.5;entryY=0;entryDx=0;entryDy=0;" parent="1" source="ANrUcxHGb1ZzqYueDWLF-19" target="ANrUcxHGb1ZzqYueDWLF-23" edge="1">
          <mxGeometry width="50" height="50" relative="1" as="geometry">
            <mxPoint x="480" y="680" as="sourcePoint" />
            <mxPoint x="500" y="690" as="targetPoint" />
          </mxGeometry>
        </mxCell>
        <mxCell id="ANrUcxHGb1ZzqYueDWLF-23" value="" style="ellipse;whiteSpace=wrap;html=1;aspect=fixed;" parent="1" vertex="1">
          <mxGeometry x="452.5" y="690" width="50" height="50" as="geometry" />
        </mxCell>
        <mxCell id="ANrUcxHGb1ZzqYueDWLF-24" value="2" style="text;html=1;strokeColor=none;fillColor=none;align=center;verticalAlign=middle;whiteSpace=wrap;rounded=0;" parent="1" vertex="1">
          <mxGeometry x="465" y="705" width="25" height="20" as="geometry" />
        </mxCell>
        <mxCell id="ANrUcxHGb1ZzqYueDWLF-26" value="" style="ellipse;whiteSpace=wrap;html=1;aspect=fixed;" parent="1" vertex="1">
          <mxGeometry x="302.5" y="585" width="50" height="50" as="geometry" />
        </mxCell>
        <mxCell id="ANrUcxHGb1ZzqYueDWLF-27" value="5" style="text;html=1;strokeColor=none;fillColor=none;align=center;verticalAlign=middle;whiteSpace=wrap;rounded=0;" parent="1" vertex="1">
          <mxGeometry x="315" y="600" width="25" height="20" as="geometry" />
        </mxCell>
        <mxCell id="ANrUcxHGb1ZzqYueDWLF-28" value="" style="ellipse;whiteSpace=wrap;html=1;aspect=fixed;" parent="1" vertex="1">
          <mxGeometry x="376.5" y="510" width="50" height="50" as="geometry" />
        </mxCell>
        <mxCell id="ANrUcxHGb1ZzqYueDWLF-29" value="6" style="text;html=1;strokeColor=none;fillColor=none;align=center;verticalAlign=middle;whiteSpace=wrap;rounded=0;" parent="1" vertex="1">
          <mxGeometry x="389" y="525" width="25" height="20" as="geometry" />
        </mxCell>
        <mxCell id="ANrUcxHGb1ZzqYueDWLF-30" value="" style="ellipse;whiteSpace=wrap;html=1;aspect=fixed;" parent="1" vertex="1">
          <mxGeometry x="302.5" y="432.68000000000006" width="50" height="50" as="geometry" />
        </mxCell>
        <mxCell id="ANrUcxHGb1ZzqYueDWLF-31" value="7" style="text;html=1;strokeColor=none;fillColor=none;align=center;verticalAlign=middle;whiteSpace=wrap;rounded=0;" parent="1" vertex="1">
          <mxGeometry x="315" y="447.68000000000006" width="25" height="20" as="geometry" />
        </mxCell>
        <mxCell id="ANrUcxHGb1ZzqYueDWLF-32" value="" style="ellipse;whiteSpace=wrap;html=1;aspect=fixed;" parent="1" vertex="1">
          <mxGeometry x="570" y="585.0000000000001" width="50" height="50" as="geometry" />
        </mxCell>
        <mxCell id="ANrUcxHGb1ZzqYueDWLF-33" value="8" style="text;html=1;strokeColor=none;fillColor=none;align=center;verticalAlign=middle;whiteSpace=wrap;rounded=0;" parent="1" vertex="1">
          <mxGeometry x="582.5" y="600.0000000000001" width="25" height="20" as="geometry" />
        </mxCell>
        <mxCell id="ANrUcxHGb1ZzqYueDWLF-34" value="" style="endArrow=none;html=1;rounded=0;" parent="1" source="ANrUcxHGb1ZzqYueDWLF-19" target="ANrUcxHGb1ZzqYueDWLF-7" edge="1">
          <mxGeometry width="50" height="50" relative="1" as="geometry">
            <mxPoint x="457.50233047033635" y="555.0023304703363" as="sourcePoint" />
            <mxPoint x="431.18000000000006" y="587.68" as="targetPoint" />
          </mxGeometry>
        </mxCell>
        <mxCell id="ANrUcxHGb1ZzqYueDWLF-37" value="" style="endArrow=none;html=1;rounded=0;entryX=0;entryY=0;entryDx=0;entryDy=0;exitX=1;exitY=1;exitDx=0;exitDy=0;" parent="1" source="ANrUcxHGb1ZzqYueDWLF-26" target="ANrUcxHGb1ZzqYueDWLF-23" edge="1">
          <mxGeometry width="50" height="50" relative="1" as="geometry">
            <mxPoint x="385.18" y="663.32" as="sourcePoint" />
            <mxPoint x="540" y="650" as="targetPoint" />
          </mxGeometry>
        </mxCell>
        <mxCell id="ANrUcxHGb1ZzqYueDWLF-38" value="" style="endArrow=none;html=1;rounded=0;entryX=0;entryY=0.5;entryDx=0;entryDy=0;exitX=1;exitY=0.5;exitDx=0;exitDy=0;" parent="1" source="ANrUcxHGb1ZzqYueDWLF-26" target="ANrUcxHGb1ZzqYueDWLF-19" edge="1">
          <mxGeometry width="50" height="50" relative="1" as="geometry">
            <mxPoint x="350" y="660" as="sourcePoint" />
            <mxPoint x="437.5" y="609.9999999999999" as="targetPoint" />
          </mxGeometry>
        </mxCell>
        <mxCell id="ANrUcxHGb1ZzqYueDWLF-39" value="" style="endArrow=none;html=1;rounded=0;entryX=0;entryY=1;entryDx=0;entryDy=0;exitX=1;exitY=0;exitDx=0;exitDy=0;" parent="1" source="ANrUcxHGb1ZzqYueDWLF-28" target="ANrUcxHGb1ZzqYueDWLF-7" edge="1">
          <mxGeometry width="50" height="50" relative="1" as="geometry">
            <mxPoint x="290" y="527.3199999999999" as="sourcePoint" />
            <mxPoint x="417.3223304703363" y="487.6776695296637" as="targetPoint" />
          </mxGeometry>
        </mxCell>
        <mxCell id="ANrUcxHGb1ZzqYueDWLF-40" value="" style="endArrow=none;html=1;rounded=0;exitX=1;exitY=1;exitDx=0;exitDy=0;entryX=0;entryY=0;entryDx=0;entryDy=0;" parent="1" source="ANrUcxHGb1ZzqYueDWLF-28" target="ANrUcxHGb1ZzqYueDWLF-19" edge="1">
          <mxGeometry width="50" height="50" relative="1" as="geometry">
            <mxPoint x="410" y="550" as="sourcePoint" />
            <mxPoint x="414" y="605" as="targetPoint" />
          </mxGeometry>
        </mxCell>
        <mxCell id="ANrUcxHGb1ZzqYueDWLF-41" value="" style="endArrow=none;html=1;rounded=0;exitX=0;exitY=0.5;exitDx=0;exitDy=0;entryX=1;entryY=0.5;entryDx=0;entryDy=0;" parent="1" source="ANrUcxHGb1ZzqYueDWLF-7" target="ANrUcxHGb1ZzqYueDWLF-30" edge="1">
          <mxGeometry width="50" height="50" relative="1" as="geometry">
            <mxPoint x="330" y="500" as="sourcePoint" />
            <mxPoint x="353" y="423" as="targetPoint" />
          </mxGeometry>
        </mxCell>
        <mxCell id="ANrUcxHGb1ZzqYueDWLF-42" value="" style="endArrow=none;html=1;rounded=0;exitX=1;exitY=0;exitDx=0;exitDy=0;entryX=0;entryY=1;entryDx=0;entryDy=0;" parent="1" source="ANrUcxHGb1ZzqYueDWLF-30" target="ANrUcxHGb1ZzqYueDWLF-14" edge="1">
          <mxGeometry width="50" height="50" relative="1" as="geometry">
            <mxPoint x="347.5" y="417.32" as="sourcePoint" />
            <mxPoint x="322.5" y="385.32" as="targetPoint" />
          </mxGeometry>
        </mxCell>
        <mxCell id="ANrUcxHGb1ZzqYueDWLF-43" value="" style="endArrow=none;html=1;rounded=0;entryX=0.5;entryY=1;entryDx=0;entryDy=0;exitX=0.5;exitY=0;exitDx=0;exitDy=0;" parent="1" source="ANrUcxHGb1ZzqYueDWLF-26" target="ANrUcxHGb1ZzqYueDWLF-30" edge="1">
          <mxGeometry width="50" height="50" relative="1" as="geometry">
            <mxPoint x="513.82" y="680" as="sourcePoint" />
            <mxPoint x="563.82" y="630" as="targetPoint" />
          </mxGeometry>
        </mxCell>
        <mxCell id="ANrUcxHGb1ZzqYueDWLF-44" value="" style="endArrow=none;html=1;rounded=0;exitX=0;exitY=0;exitDx=0;exitDy=0;entryX=1;entryY=1;entryDx=0;entryDy=0;" parent="1" source="ANrUcxHGb1ZzqYueDWLF-28" target="ANrUcxHGb1ZzqYueDWLF-30" edge="1">
          <mxGeometry width="50" height="50" relative="1" as="geometry">
            <mxPoint x="327.5023304703363" y="502.68233047033624" as="sourcePoint" />
            <mxPoint x="291.18" y="423.04" as="targetPoint" />
          </mxGeometry>
        </mxCell>
        <mxCell id="ANrUcxHGb1ZzqYueDWLF-45" value="" style="endArrow=none;html=1;rounded=0;entryX=0;entryY=0;entryDx=0;entryDy=0;exitX=1;exitY=1;exitDx=0;exitDy=0;" parent="1" source="ANrUcxHGb1ZzqYueDWLF-7" target="ANrUcxHGb1ZzqYueDWLF-32" edge="1">
          <mxGeometry width="50" height="50" relative="1" as="geometry">
            <mxPoint x="540" y="580" as="sourcePoint" />
            <mxPoint x="590" y="530" as="targetPoint" />
          </mxGeometry>
        </mxCell>
        <mxCell id="ANrUcxHGb1ZzqYueDWLF-46" value="" style="endArrow=none;html=1;rounded=0;entryX=0;entryY=1;entryDx=0;entryDy=0;exitX=1;exitY=0;exitDx=0;exitDy=0;" parent="1" source="ANrUcxHGb1ZzqYueDWLF-23" target="ANrUcxHGb1ZzqYueDWLF-32" edge="1">
          <mxGeometry width="50" height="50" relative="1" as="geometry">
            <mxPoint x="480" y="680" as="sourcePoint" />
            <mxPoint x="670" y="550" as="targetPoint" />
          </mxGeometry>
        </mxCell>
        <mxCell id="ANrUcxHGb1ZzqYueDWLF-47" value="" style="endArrow=none;html=1;rounded=0;entryX=0;entryY=0.5;entryDx=0;entryDy=0;exitX=1;exitY=0.5;exitDx=0;exitDy=0;" parent="1" source="ANrUcxHGb1ZzqYueDWLF-19" target="ANrUcxHGb1ZzqYueDWLF-32" edge="1">
          <mxGeometry width="50" height="50" relative="1" as="geometry">
            <mxPoint x="550" y="570" as="sourcePoint" />
            <mxPoint x="600" y="520" as="targetPoint" />
          </mxGeometry>
        </mxCell>
        <mxCell id="ANrUcxHGb1ZzqYueDWLF-48" value="" style="endArrow=none;html=1;rounded=0;entryX=0;entryY=1;entryDx=0;entryDy=0;exitX=1;exitY=0;exitDx=0;exitDy=0;" parent="1" source="ANrUcxHGb1ZzqYueDWLF-26" target="ANrUcxHGb1ZzqYueDWLF-28" edge="1">
          <mxGeometry width="50" height="50" relative="1" as="geometry">
            <mxPoint x="340" y="620" as="sourcePoint" />
            <mxPoint x="400" y="570" as="targetPoint" />
          </mxGeometry>
        </mxCell>
        <mxCell id="ANrUcxHGb1ZzqYueDWLF-51" value="29" style="text;html=1;strokeColor=none;fillColor=none;align=center;verticalAlign=middle;whiteSpace=wrap;rounded=0;" parent="1" vertex="1">
          <mxGeometry x="440" y="400" width="25" height="20" as="geometry" />
        </mxCell>
        <mxCell id="ANrUcxHGb1ZzqYueDWLF-52" value="40" style="text;html=1;strokeColor=none;fillColor=none;align=center;verticalAlign=middle;whiteSpace=wrap;rounded=0;" parent="1" vertex="1">
          <mxGeometry x="477.5" y="520" width="25" height="20" as="geometry" />
        </mxCell>
        <mxCell id="ANrUcxHGb1ZzqYueDWLF-53" value="61" style="text;html=1;strokeColor=none;fillColor=none;align=center;verticalAlign=middle;whiteSpace=wrap;rounded=0;" parent="1" vertex="1">
          <mxGeometry x="415" y="482.68" width="25" height="20" as="geometry" />
        </mxCell>
        <mxCell id="ANrUcxHGb1ZzqYueDWLF-54" value="17" style="text;html=1;strokeColor=none;fillColor=none;align=center;verticalAlign=middle;whiteSpace=wrap;rounded=0;" parent="1" vertex="1">
          <mxGeometry x="389" y="432.68" width="25" height="20" as="geometry" />
        </mxCell>
        <mxCell id="ANrUcxHGb1ZzqYueDWLF-55" value="15" style="text;html=1;strokeColor=none;fillColor=none;align=center;verticalAlign=middle;whiteSpace=wrap;rounded=0;" parent="1" vertex="1">
          <mxGeometry x="540" y="520" width="25" height="20" as="geometry" />
        </mxCell>
        <mxCell id="ANrUcxHGb1ZzqYueDWLF-56" value="59" style="text;html=1;strokeColor=none;fillColor=none;align=center;verticalAlign=middle;whiteSpace=wrap;rounded=0;" parent="1" vertex="1">
          <mxGeometry x="477.5" y="650" width="25" height="20" as="geometry" />
        </mxCell>
        <mxCell id="ANrUcxHGb1ZzqYueDWLF-57" value="36" style="text;html=1;strokeColor=none;fillColor=none;align=center;verticalAlign=middle;whiteSpace=wrap;rounded=0;" parent="1" vertex="1">
          <mxGeometry x="376.5" y="660" width="25" height="20" as="geometry" />
        </mxCell>
        <mxCell id="ANrUcxHGb1ZzqYueDWLF-58" value="88" style="text;html=1;strokeColor=none;fillColor=none;align=center;verticalAlign=middle;whiteSpace=wrap;rounded=0;" parent="1" vertex="1">
          <mxGeometry x="511" y="890" width="25" height="20" as="geometry" />
        </mxCell>
        <mxCell id="ANrUcxHGb1ZzqYueDWLF-59" value="27" style="text;html=1;strokeColor=none;fillColor=none;align=center;verticalAlign=middle;whiteSpace=wrap;rounded=0;" parent="1" vertex="1">
          <mxGeometry x="389" y="590" width="25" height="20" as="geometry" />
        </mxCell>
        <mxCell id="ANrUcxHGb1ZzqYueDWLF-61" value="92" style="text;html=1;strokeColor=none;fillColor=none;align=center;verticalAlign=middle;whiteSpace=wrap;rounded=0;" parent="1" vertex="1">
          <mxGeometry x="520" y="590" width="25" height="20" as="geometry" />
        </mxCell>
        <mxCell id="ANrUcxHGb1ZzqYueDWLF-62" value="88" style="text;html=1;strokeColor=none;fillColor=none;align=center;verticalAlign=middle;whiteSpace=wrap;rounded=0;" parent="1" vertex="1">
          <mxGeometry x="430" y="550" width="25" height="20" as="geometry" />
        </mxCell>
        <mxCell id="ANrUcxHGb1ZzqYueDWLF-63" value="57" style="text;html=1;strokeColor=none;fillColor=none;align=center;verticalAlign=middle;whiteSpace=wrap;rounded=0;" parent="1" vertex="1">
          <mxGeometry x="340" y="550" width="25" height="20" as="geometry" />
        </mxCell>
        <mxCell id="ANrUcxHGb1ZzqYueDWLF-64" value="71" style="text;html=1;strokeColor=none;fillColor=none;align=center;verticalAlign=middle;whiteSpace=wrap;rounded=0;" parent="1" vertex="1">
          <mxGeometry x="302.5" y="530" width="25" height="20" as="geometry" />
        </mxCell>
        <mxCell id="ANrUcxHGb1ZzqYueDWLF-65" value="81" style="text;html=1;strokeColor=none;fillColor=none;align=center;verticalAlign=middle;whiteSpace=wrap;rounded=0;" parent="1" vertex="1">
          <mxGeometry x="360" y="480" width="25" height="20" as="geometry" />
        </mxCell>
        <mxCell id="ANrUcxHGb1ZzqYueDWLF-66" value="21" style="text;html=1;strokeColor=none;fillColor=none;align=center;verticalAlign=middle;whiteSpace=wrap;rounded=0;" parent="1" vertex="1">
          <mxGeometry x="340" y="400" width="25" height="20" as="geometry" />
        </mxCell>
        <mxCell id="ANrUcxHGb1ZzqYueDWLF-67" value="" style="endArrow=none;html=1;rounded=0;entryX=0.33;entryY=0.986;entryDx=0;entryDy=0;entryPerimeter=0;exitX=0.33;exitY=0.06;exitDx=0;exitDy=0;exitPerimeter=0;strokeWidth=2;" parent="1" source="ANrUcxHGb1ZzqYueDWLF-19" target="ANrUcxHGb1ZzqYueDWLF-7" edge="1">
          <mxGeometry width="50" height="50" relative="1" as="geometry">
            <mxPoint x="580" y="510" as="sourcePoint" />
            <mxPoint x="630" y="460" as="targetPoint" />
          </mxGeometry>
        </mxCell>
        <mxCell id="ANrUcxHGb1ZzqYueDWLF-68" value="" style="endArrow=none;html=1;rounded=0;entryX=0.04;entryY=0.68;entryDx=0;entryDy=0;entryPerimeter=0;exitX=0.67;exitY=0.06;exitDx=0;exitDy=0;exitPerimeter=0;strokeWidth=2;" parent="1" source="ANrUcxHGb1ZzqYueDWLF-23" target="ANrUcxHGb1ZzqYueDWLF-32" edge="1">
          <mxGeometry width="50" height="50" relative="1" as="geometry">
            <mxPoint x="479" y="598" as="sourcePoint" />
            <mxPoint x="479" y="492" as="targetPoint" />
          </mxGeometry>
        </mxCell>
        <mxCell id="TwgpB9pHJR5N3uFKzqj1-3" value="" style="ellipse;whiteSpace=wrap;html=1;aspect=fixed;" parent="1" vertex="1">
          <mxGeometry x="431" y="840" width="50" height="50" as="geometry" />
        </mxCell>
        <mxCell id="TwgpB9pHJR5N3uFKzqj1-4" value="1" style="text;html=1;strokeColor=none;fillColor=none;align=center;verticalAlign=middle;whiteSpace=wrap;rounded=0;" parent="1" vertex="1">
          <mxGeometry x="443.5" y="855" width="25" height="20" as="geometry" />
        </mxCell>
        <mxCell id="TwgpB9pHJR5N3uFKzqj1-5" value="" style="ellipse;whiteSpace=wrap;html=1;aspect=fixed;" parent="1" vertex="1">
          <mxGeometry x="431" y="1030" width="50" height="50" as="geometry" />
        </mxCell>
        <mxCell id="TwgpB9pHJR5N3uFKzqj1-6" value="2" style="text;html=1;strokeColor=none;fillColor=none;align=center;verticalAlign=middle;whiteSpace=wrap;rounded=0;" parent="1" vertex="1">
          <mxGeometry x="443.5" y="1045" width="25" height="20" as="geometry" />
        </mxCell>
        <mxCell id="TwgpB9pHJR5N3uFKzqj1-8" value="" style="ellipse;whiteSpace=wrap;html=1;aspect=fixed;" parent="1" vertex="1">
          <mxGeometry x="327.5" y="940" width="50" height="50" as="geometry" />
        </mxCell>
        <mxCell id="TwgpB9pHJR5N3uFKzqj1-9" value="6" style="text;html=1;strokeColor=none;fillColor=none;align=center;verticalAlign=middle;whiteSpace=wrap;rounded=0;" parent="1" vertex="1">
          <mxGeometry x="340" y="955" width="25" height="20" as="geometry" />
        </mxCell>
        <mxCell id="TwgpB9pHJR5N3uFKzqj1-10" value="" style="ellipse;whiteSpace=wrap;html=1;aspect=fixed;" parent="1" vertex="1">
          <mxGeometry x="546" y="940" width="50" height="50" as="geometry" />
        </mxCell>
        <mxCell id="TwgpB9pHJR5N3uFKzqj1-11" value="3" style="text;html=1;strokeColor=none;fillColor=none;align=center;verticalAlign=middle;whiteSpace=wrap;rounded=0;" parent="1" vertex="1">
          <mxGeometry x="558.5" y="955" width="25" height="20" as="geometry" />
        </mxCell>
        <mxCell id="TwgpB9pHJR5N3uFKzqj1-12" value="" style="ellipse;whiteSpace=wrap;html=1;aspect=fixed;" parent="1" vertex="1">
          <mxGeometry x="431" y="1119" width="50" height="50" as="geometry" />
        </mxCell>
        <mxCell id="TwgpB9pHJR5N3uFKzqj1-13" value="4" style="text;html=1;strokeColor=none;fillColor=none;align=center;verticalAlign=middle;whiteSpace=wrap;rounded=0;" parent="1" vertex="1">
          <mxGeometry x="443.5" y="1134" width="25" height="20" as="geometry" />
        </mxCell>
        <mxCell id="TwgpB9pHJR5N3uFKzqj1-14" value="" style="ellipse;whiteSpace=wrap;html=1;aspect=fixed;" parent="1" vertex="1">
          <mxGeometry x="431" y="940" width="50" height="50" as="geometry" />
        </mxCell>
        <mxCell id="TwgpB9pHJR5N3uFKzqj1-15" value="5" style="text;html=1;strokeColor=none;fillColor=none;align=center;verticalAlign=middle;whiteSpace=wrap;rounded=0;" parent="1" vertex="1">
          <mxGeometry x="443.5" y="955" width="25" height="20" as="geometry" />
        </mxCell>
        <mxCell id="TwgpB9pHJR5N3uFKzqj1-16" value="" style="endArrow=none;html=1;rounded=0;entryX=1;entryY=1;entryDx=0;entryDy=0;exitX=0;exitY=0;exitDx=0;exitDy=0;" parent="1" source="TwgpB9pHJR5N3uFKzqj1-10" target="TwgpB9pHJR5N3uFKzqj1-3" edge="1">
          <mxGeometry width="50" height="50" relative="1" as="geometry">
            <mxPoint x="451" y="920" as="sourcePoint" />
            <mxPoint x="501" y="870" as="targetPoint" />
          </mxGeometry>
        </mxCell>
        <mxCell id="TwgpB9pHJR5N3uFKzqj1-17" value="" style="endArrow=none;html=1;rounded=0;entryX=0.5;entryY=1;entryDx=0;entryDy=0;exitX=0.5;exitY=0;exitDx=0;exitDy=0;" parent="1" source="TwgpB9pHJR5N3uFKzqj1-14" target="TwgpB9pHJR5N3uFKzqj1-3" edge="1">
          <mxGeometry width="50" height="50" relative="1" as="geometry">
            <mxPoint x="421" y="950" as="sourcePoint" />
            <mxPoint x="471" y="900" as="targetPoint" />
          </mxGeometry>
        </mxCell>
        <mxCell id="TwgpB9pHJR5N3uFKzqj1-18" value="" style="endArrow=none;html=1;rounded=0;exitX=1;exitY=0;exitDx=0;exitDy=0;entryX=0;entryY=1;entryDx=0;entryDy=0;" parent="1" source="TwgpB9pHJR5N3uFKzqj1-8" target="TwgpB9pHJR5N3uFKzqj1-3" edge="1">
          <mxGeometry width="50" height="50" relative="1" as="geometry">
            <mxPoint x="361" y="870" as="sourcePoint" />
            <mxPoint x="411" y="880" as="targetPoint" />
          </mxGeometry>
        </mxCell>
        <mxCell id="TwgpB9pHJR5N3uFKzqj1-19" value="" style="endArrow=none;html=1;rounded=0;entryX=1;entryY=0;entryDx=0;entryDy=0;exitX=0;exitY=1;exitDx=0;exitDy=0;" parent="1" source="TwgpB9pHJR5N3uFKzqj1-10" target="TwgpB9pHJR5N3uFKzqj1-5" edge="1">
          <mxGeometry width="50" height="50" relative="1" as="geometry">
            <mxPoint x="611" y="970" as="sourcePoint" />
            <mxPoint x="661" y="920" as="targetPoint" />
          </mxGeometry>
        </mxCell>
        <mxCell id="TwgpB9pHJR5N3uFKzqj1-20" value="" style="endArrow=none;html=1;rounded=0;entryX=0.5;entryY=1;entryDx=0;entryDy=0;exitX=0.5;exitY=0;exitDx=0;exitDy=0;" parent="1" source="TwgpB9pHJR5N3uFKzqj1-12" target="TwgpB9pHJR5N3uFKzqj1-5" edge="1">
          <mxGeometry width="50" height="50" relative="1" as="geometry">
            <mxPoint x="440" y="1150" as="sourcePoint" />
            <mxPoint x="521" y="900" as="targetPoint" />
          </mxGeometry>
        </mxCell>
        <mxCell id="TwgpB9pHJR5N3uFKzqj1-21" value="" style="endArrow=none;html=1;rounded=0;exitX=0.5;exitY=1;exitDx=0;exitDy=0;entryX=0.5;entryY=0;entryDx=0;entryDy=0;" parent="1" source="TwgpB9pHJR5N3uFKzqj1-14" target="TwgpB9pHJR5N3uFKzqj1-5" edge="1">
          <mxGeometry width="50" height="50" relative="1" as="geometry">
            <mxPoint x="411" y="980" as="sourcePoint" />
            <mxPoint x="461" y="930" as="targetPoint" />
          </mxGeometry>
        </mxCell>
        <mxCell id="TwgpB9pHJR5N3uFKzqj1-22" value="" style="endArrow=none;html=1;rounded=0;entryX=0;entryY=0;entryDx=0;entryDy=0;exitX=1;exitY=1;exitDx=0;exitDy=0;" parent="1" source="TwgpB9pHJR5N3uFKzqj1-8" target="TwgpB9pHJR5N3uFKzqj1-5" edge="1">
          <mxGeometry width="50" height="50" relative="1" as="geometry">
            <mxPoint x="441" y="930" as="sourcePoint" />
            <mxPoint x="491" y="880" as="targetPoint" />
          </mxGeometry>
        </mxCell>
        <mxCell id="TwgpB9pHJR5N3uFKzqj1-23" value="" style="endArrow=none;html=1;rounded=0;entryX=0.5;entryY=1;entryDx=0;entryDy=0;exitX=1;exitY=0;exitDx=0;exitDy=0;" parent="1" source="TwgpB9pHJR5N3uFKzqj1-12" target="TwgpB9pHJR5N3uFKzqj1-10" edge="1">
          <mxGeometry width="50" height="50" relative="1" as="geometry">
            <mxPoint x="501" y="1100" as="sourcePoint" />
            <mxPoint x="551" y="1050" as="targetPoint" />
          </mxGeometry>
        </mxCell>
        <mxCell id="TwgpB9pHJR5N3uFKzqj1-24" value="" style="endArrow=none;html=1;rounded=0;exitX=1;exitY=0.5;exitDx=0;exitDy=0;entryX=0;entryY=0.5;entryDx=0;entryDy=0;" parent="1" source="TwgpB9pHJR5N3uFKzqj1-14" target="TwgpB9pHJR5N3uFKzqj1-10" edge="1">
          <mxGeometry width="50" height="50" relative="1" as="geometry">
            <mxPoint x="441" y="1020" as="sourcePoint" />
            <mxPoint x="541" y="965" as="targetPoint" />
          </mxGeometry>
        </mxCell>
        <mxCell id="TwgpB9pHJR5N3uFKzqj1-25" value="" style="endArrow=none;html=1;rounded=0;entryX=1;entryY=0.5;entryDx=0;entryDy=0;exitX=0;exitY=0.5;exitDx=0;exitDy=0;" parent="1" source="TwgpB9pHJR5N3uFKzqj1-14" target="TwgpB9pHJR5N3uFKzqj1-8" edge="1">
          <mxGeometry width="50" height="50" relative="1" as="geometry">
            <mxPoint x="331" y="1000" as="sourcePoint" />
            <mxPoint x="381" y="950" as="targetPoint" />
          </mxGeometry>
        </mxCell>
        <mxCell id="TwgpB9pHJR5N3uFKzqj1-28" value="71" style="text;html=1;strokeColor=none;fillColor=none;align=center;verticalAlign=middle;whiteSpace=wrap;rounded=0;" parent="1" vertex="1">
          <mxGeometry x="453.5" y="910" width="25" height="20" as="geometry" />
        </mxCell>
        <mxCell id="TwgpB9pHJR5N3uFKzqj1-29" value="88" style="text;html=1;strokeColor=none;fillColor=none;align=center;verticalAlign=middle;whiteSpace=wrap;rounded=0;" parent="1" vertex="1">
          <mxGeometry x="377.5" y="890" width="25" height="20" as="geometry" />
        </mxCell>
        <mxCell id="TwgpB9pHJR5N3uFKzqj1-32" value="26" style="text;html=1;strokeColor=none;fillColor=none;align=center;verticalAlign=middle;whiteSpace=wrap;rounded=0;" parent="1" vertex="1">
          <mxGeometry x="502.5" y="1010" width="25" height="20" as="geometry" />
        </mxCell>
        <mxCell id="TwgpB9pHJR5N3uFKzqj1-33" value="21" style="text;html=1;strokeColor=none;fillColor=none;align=center;verticalAlign=middle;whiteSpace=wrap;rounded=0;" parent="1" vertex="1">
          <mxGeometry x="452.5" y="1090" width="25" height="20" as="geometry" />
        </mxCell>
        <mxCell id="TwgpB9pHJR5N3uFKzqj1-34" value="87" style="text;html=1;strokeColor=none;fillColor=none;align=center;verticalAlign=middle;whiteSpace=wrap;rounded=0;" parent="1" vertex="1">
          <mxGeometry x="456" y="1010" width="25" height="20" as="geometry" />
        </mxCell>
        <mxCell id="TwgpB9pHJR5N3uFKzqj1-35" value="55" style="text;html=1;strokeColor=none;fillColor=none;align=center;verticalAlign=middle;whiteSpace=wrap;rounded=0;" parent="1" vertex="1">
          <mxGeometry x="391" y="1010" width="25" height="20" as="geometry" />
        </mxCell>
        <mxCell id="TwgpB9pHJR5N3uFKzqj1-36" value="91" style="text;html=1;strokeColor=none;fillColor=none;align=center;verticalAlign=middle;whiteSpace=wrap;rounded=0;" parent="1" vertex="1">
          <mxGeometry x="503.5" y="940" width="25" height="20" as="geometry" />
        </mxCell>
        <mxCell id="TwgpB9pHJR5N3uFKzqj1-37" value="13" style="text;html=1;strokeColor=none;fillColor=none;align=center;verticalAlign=middle;whiteSpace=wrap;rounded=0;" parent="1" vertex="1">
          <mxGeometry x="522.5" y="1060" width="25" height="20" as="geometry" />
        </mxCell>
        <mxCell id="TwgpB9pHJR5N3uFKzqj1-38" value="37" style="text;html=1;strokeColor=none;fillColor=none;align=center;verticalAlign=middle;whiteSpace=wrap;rounded=0;" parent="1" vertex="1">
          <mxGeometry x="391" y="940" width="25" height="20" as="geometry" />
        </mxCell>
        <mxCell id="TwgpB9pHJR5N3uFKzqj1-39" value="" style="ellipse;whiteSpace=wrap;html=1;aspect=fixed;" parent="1" vertex="1">
          <mxGeometry x="292.5" y="1475" width="50" height="50" as="geometry" />
        </mxCell>
        <mxCell id="TwgpB9pHJR5N3uFKzqj1-40" value="2" style="text;html=1;strokeColor=none;fillColor=none;align=center;verticalAlign=middle;whiteSpace=wrap;rounded=0;" parent="1" vertex="1">
          <mxGeometry x="305" y="1490" width="25" height="20" as="geometry" />
        </mxCell>
        <mxCell id="TwgpB9pHJR5N3uFKzqj1-55" value="" style="ellipse;whiteSpace=wrap;html=1;aspect=fixed;" parent="1" vertex="1">
          <mxGeometry x="497.5" y="1475" width="50" height="50" as="geometry" />
        </mxCell>
        <mxCell id="TwgpB9pHJR5N3uFKzqj1-56" value="5" style="text;html=1;strokeColor=none;fillColor=none;align=center;verticalAlign=middle;whiteSpace=wrap;rounded=0;" parent="1" vertex="1">
          <mxGeometry x="510" y="1490" width="25" height="20" as="geometry" />
        </mxCell>
        <mxCell id="TwgpB9pHJR5N3uFKzqj1-57" value="" style="ellipse;whiteSpace=wrap;html=1;aspect=fixed;" parent="1" vertex="1">
          <mxGeometry x="397.5" y="1590" width="50" height="50" as="geometry" />
        </mxCell>
        <mxCell id="TwgpB9pHJR5N3uFKzqj1-58" value="3" style="text;html=1;strokeColor=none;fillColor=none;align=center;verticalAlign=middle;whiteSpace=wrap;rounded=0;" parent="1" vertex="1">
          <mxGeometry x="410" y="1605" width="25" height="20" as="geometry" />
        </mxCell>
        <mxCell id="TwgpB9pHJR5N3uFKzqj1-59" value="" style="ellipse;whiteSpace=wrap;html=1;aspect=fixed;" parent="1" vertex="1">
          <mxGeometry x="292.5" y="1590" width="50" height="50" as="geometry" />
        </mxCell>
        <mxCell id="TwgpB9pHJR5N3uFKzqj1-60" value="1" style="text;html=1;strokeColor=none;fillColor=none;align=center;verticalAlign=middle;whiteSpace=wrap;rounded=0;" parent="1" vertex="1">
          <mxGeometry x="305" y="1605" width="25" height="20" as="geometry" />
        </mxCell>
        <mxCell id="TwgpB9pHJR5N3uFKzqj1-61" value="" style="ellipse;whiteSpace=wrap;html=1;aspect=fixed;" parent="1" vertex="1">
          <mxGeometry x="292.5" y="1715" width="50" height="50" as="geometry" />
        </mxCell>
        <mxCell id="TwgpB9pHJR5N3uFKzqj1-62" value="4" style="text;html=1;strokeColor=none;fillColor=none;align=center;verticalAlign=middle;whiteSpace=wrap;rounded=0;" parent="1" vertex="1">
          <mxGeometry x="305" y="1730" width="25" height="20" as="geometry" />
        </mxCell>
        <mxCell id="TwgpB9pHJR5N3uFKzqj1-63" value="" style="ellipse;whiteSpace=wrap;html=1;aspect=fixed;" parent="1" vertex="1">
          <mxGeometry x="497.5" y="1830" width="50" height="50" as="geometry" />
        </mxCell>
        <mxCell id="TwgpB9pHJR5N3uFKzqj1-64" value="7" style="text;html=1;strokeColor=none;fillColor=none;align=center;verticalAlign=middle;whiteSpace=wrap;rounded=0;" parent="1" vertex="1">
          <mxGeometry x="510" y="1845" width="25" height="20" as="geometry" />
        </mxCell>
        <mxCell id="TwgpB9pHJR5N3uFKzqj1-67" value="" style="ellipse;whiteSpace=wrap;html=1;aspect=fixed;" parent="1" vertex="1">
          <mxGeometry x="497.5" y="1715" width="50" height="50" as="geometry" />
        </mxCell>
        <mxCell id="TwgpB9pHJR5N3uFKzqj1-68" value="6" style="text;html=1;strokeColor=none;fillColor=none;align=center;verticalAlign=middle;whiteSpace=wrap;rounded=0;" parent="1" vertex="1">
          <mxGeometry x="510" y="1727.5" width="25" height="25" as="geometry" />
        </mxCell>
        <mxCell id="TwgpB9pHJR5N3uFKzqj1-74" value="" style="endArrow=classic;html=1;rounded=0;exitX=0.5;exitY=1;exitDx=0;exitDy=0;entryX=0.5;entryY=0;entryDx=0;entryDy=0;" parent="1" source="TwgpB9pHJR5N3uFKzqj1-59" target="TwgpB9pHJR5N3uFKzqj1-61" edge="1">
          <mxGeometry width="50" height="50" relative="1" as="geometry">
            <mxPoint x="221" y="1540" as="sourcePoint" />
            <mxPoint x="301" y="1690" as="targetPoint" />
          </mxGeometry>
        </mxCell>
        <mxCell id="TwgpB9pHJR5N3uFKzqj1-75" value="" style="endArrow=classic;html=1;rounded=0;exitX=1;exitY=0.5;exitDx=0;exitDy=0;entryX=0;entryY=0.5;entryDx=0;entryDy=0;" parent="1" source="TwgpB9pHJR5N3uFKzqj1-59" target="TwgpB9pHJR5N3uFKzqj1-57" edge="1">
          <mxGeometry width="50" height="50" relative="1" as="geometry">
            <mxPoint x="397.5" y="1580" as="sourcePoint" />
            <mxPoint x="447.5" y="1530" as="targetPoint" />
          </mxGeometry>
        </mxCell>
        <mxCell id="TwgpB9pHJR5N3uFKzqj1-76" value="" style="endArrow=classic;html=1;rounded=0;exitX=0.5;exitY=0;exitDx=0;exitDy=0;entryX=0.5;entryY=1;entryDx=0;entryDy=0;" parent="1" source="TwgpB9pHJR5N3uFKzqj1-59" target="TwgpB9pHJR5N3uFKzqj1-39" edge="1">
          <mxGeometry width="50" height="50" relative="1" as="geometry">
            <mxPoint x="341" y="1610" as="sourcePoint" />
            <mxPoint x="391" y="1560" as="targetPoint" />
          </mxGeometry>
        </mxCell>
        <mxCell id="TwgpB9pHJR5N3uFKzqj1-77" value="" style="endArrow=classic;html=1;rounded=0;exitX=1;exitY=1;exitDx=0;exitDy=0;entryX=0;entryY=0;entryDx=0;entryDy=0;" parent="1" source="TwgpB9pHJR5N3uFKzqj1-39" target="TwgpB9pHJR5N3uFKzqj1-57" edge="1">
          <mxGeometry width="50" height="50" relative="1" as="geometry">
            <mxPoint x="387.5" y="1590" as="sourcePoint" />
            <mxPoint x="437.5" y="1540" as="targetPoint" />
          </mxGeometry>
        </mxCell>
        <mxCell id="TwgpB9pHJR5N3uFKzqj1-78" value="" style="endArrow=classic;html=1;rounded=0;exitX=1;exitY=0.5;exitDx=0;exitDy=0;entryX=0;entryY=0.5;entryDx=0;entryDy=0;" parent="1" source="TwgpB9pHJR5N3uFKzqj1-39" target="TwgpB9pHJR5N3uFKzqj1-55" edge="1">
          <mxGeometry width="50" height="50" relative="1" as="geometry">
            <mxPoint x="405" y="1550.0000000000002" as="sourcePoint" />
            <mxPoint x="490" y="1530" as="targetPoint" />
          </mxGeometry>
        </mxCell>
        <mxCell id="TwgpB9pHJR5N3uFKzqj1-80" value="" style="endArrow=classic;html=1;rounded=0;exitX=0;exitY=1;exitDx=0;exitDy=0;entryX=1;entryY=0;entryDx=0;entryDy=0;" parent="1" source="TwgpB9pHJR5N3uFKzqj1-57" target="TwgpB9pHJR5N3uFKzqj1-61" edge="1">
          <mxGeometry width="50" height="50" relative="1" as="geometry">
            <mxPoint x="427.5" y="1690" as="sourcePoint" />
            <mxPoint x="477.5" y="1640" as="targetPoint" />
          </mxGeometry>
        </mxCell>
        <mxCell id="TwgpB9pHJR5N3uFKzqj1-81" value="" style="endArrow=classic;html=1;rounded=0;exitX=1;exitY=0;exitDx=0;exitDy=0;entryX=0;entryY=1;entryDx=0;entryDy=0;" parent="1" source="TwgpB9pHJR5N3uFKzqj1-57" target="TwgpB9pHJR5N3uFKzqj1-55" edge="1">
          <mxGeometry width="50" height="50" relative="1" as="geometry">
            <mxPoint x="457.5" y="1570" as="sourcePoint" />
            <mxPoint x="507.5" y="1520" as="targetPoint" />
          </mxGeometry>
        </mxCell>
        <mxCell id="TwgpB9pHJR5N3uFKzqj1-82" value="" style="endArrow=classic;html=1;rounded=0;exitX=1;exitY=0.5;exitDx=0;exitDy=0;" parent="1" source="TwgpB9pHJR5N3uFKzqj1-61" target="TwgpB9pHJR5N3uFKzqj1-67" edge="1">
          <mxGeometry width="50" height="50" relative="1" as="geometry">
            <mxPoint x="377.5" y="1800" as="sourcePoint" />
            <mxPoint x="427.5" y="1750" as="targetPoint" />
          </mxGeometry>
        </mxCell>
        <mxCell id="TwgpB9pHJR5N3uFKzqj1-83" value="" style="endArrow=classic;html=1;rounded=0;exitX=1;exitY=1;exitDx=0;exitDy=0;entryX=0;entryY=0;entryDx=0;entryDy=0;" parent="1" source="TwgpB9pHJR5N3uFKzqj1-61" target="TwgpB9pHJR5N3uFKzqj1-63" edge="1">
          <mxGeometry width="50" height="50" relative="1" as="geometry">
            <mxPoint x="301" y="1725" as="sourcePoint" />
            <mxPoint x="457.5" y="1760" as="targetPoint" />
          </mxGeometry>
        </mxCell>
        <mxCell id="TwgpB9pHJR5N3uFKzqj1-84" value="" style="ellipse;whiteSpace=wrap;html=1;aspect=fixed;" parent="1" vertex="1">
          <mxGeometry x="612.5" y="1715" width="50" height="50" as="geometry" />
        </mxCell>
        <mxCell id="TwgpB9pHJR5N3uFKzqj1-85" value="8" style="text;html=1;strokeColor=none;fillColor=none;align=center;verticalAlign=middle;whiteSpace=wrap;rounded=0;" parent="1" vertex="1">
          <mxGeometry x="625" y="1730" width="25" height="20" as="geometry" />
        </mxCell>
        <mxCell id="TwgpB9pHJR5N3uFKzqj1-86" value="" style="endArrow=classic;html=1;rounded=0;exitX=1;exitY=1;exitDx=0;exitDy=0;entryX=0;entryY=0;entryDx=0;entryDy=0;" parent="1" source="TwgpB9pHJR5N3uFKzqj1-55" target="TwgpB9pHJR5N3uFKzqj1-84" edge="1">
          <mxGeometry width="50" height="50" relative="1" as="geometry">
            <mxPoint x="477.5" y="1500" as="sourcePoint" />
            <mxPoint x="527.5" y="1450" as="targetPoint" />
          </mxGeometry>
        </mxCell>
        <mxCell id="TwgpB9pHJR5N3uFKzqj1-87" value="" style="endArrow=classic;html=1;rounded=0;exitX=0;exitY=0;exitDx=0;exitDy=0;entryX=1;entryY=1;entryDx=0;entryDy=0;" parent="1" source="TwgpB9pHJR5N3uFKzqj1-67" target="TwgpB9pHJR5N3uFKzqj1-57" edge="1">
          <mxGeometry width="50" height="50" relative="1" as="geometry">
            <mxPoint x="447.5" y="1680" as="sourcePoint" />
            <mxPoint x="497.5" y="1630" as="targetPoint" />
          </mxGeometry>
        </mxCell>
        <mxCell id="TwgpB9pHJR5N3uFKzqj1-88" value="" style="endArrow=classic;html=1;rounded=0;exitX=0.5;exitY=0;exitDx=0;exitDy=0;entryX=0.5;entryY=1;entryDx=0;entryDy=0;" parent="1" source="TwgpB9pHJR5N3uFKzqj1-67" target="TwgpB9pHJR5N3uFKzqj1-55" edge="1">
          <mxGeometry width="50" height="50" relative="1" as="geometry">
            <mxPoint x="507.5" y="1610" as="sourcePoint" />
            <mxPoint x="507.5" y="1530" as="targetPoint" />
          </mxGeometry>
        </mxCell>
        <mxCell id="TwgpB9pHJR5N3uFKzqj1-90" value="" style="endArrow=classic;html=1;rounded=0;exitX=0.5;exitY=0;exitDx=0;exitDy=0;entryX=0.5;entryY=1;entryDx=0;entryDy=0;" parent="1" source="TwgpB9pHJR5N3uFKzqj1-63" target="TwgpB9pHJR5N3uFKzqj1-67" edge="1">
          <mxGeometry width="50" height="50" relative="1" as="geometry">
            <mxPoint x="497.5" y="1750" as="sourcePoint" />
            <mxPoint x="547.5" y="1700" as="targetPoint" />
          </mxGeometry>
        </mxCell>
        <mxCell id="TwgpB9pHJR5N3uFKzqj1-91" value="" style="endArrow=classic;html=1;rounded=0;exitX=1;exitY=0;exitDx=0;exitDy=0;entryX=0;entryY=1;entryDx=0;entryDy=0;" parent="1" source="TwgpB9pHJR5N3uFKzqj1-63" target="TwgpB9pHJR5N3uFKzqj1-84" edge="1">
          <mxGeometry width="50" height="50" relative="1" as="geometry">
            <mxPoint x="527.5" y="1760" as="sourcePoint" />
            <mxPoint x="602.5" y="1663" as="targetPoint" />
          </mxGeometry>
        </mxCell>
        <mxCell id="TwgpB9pHJR5N3uFKzqj1-92" value="10/20" style="text;html=1;strokeColor=none;fillColor=none;align=center;verticalAlign=middle;whiteSpace=wrap;rounded=0;" parent="1" vertex="1">
          <mxGeometry x="280" y="1550" width="25" height="20" as="geometry" />
        </mxCell>
        <mxCell id="TwgpB9pHJR5N3uFKzqj1-93" value="20/20" style="text;html=1;strokeColor=none;fillColor=none;align=center;verticalAlign=middle;whiteSpace=wrap;rounded=0;" parent="1" vertex="1">
          <mxGeometry x="350" y="1590" width="25" height="20" as="geometry" />
        </mxCell>
        <mxCell id="TwgpB9pHJR5N3uFKzqj1-94" value="40" style="text;html=1;strokeColor=none;fillColor=none;align=center;verticalAlign=middle;whiteSpace=wrap;rounded=0;" parent="1" vertex="1">
          <mxGeometry x="292.5" y="1670" width="25" height="20" as="geometry" />
        </mxCell>
        <mxCell id="TwgpB9pHJR5N3uFKzqj1-95" value="10" style="text;html=1;strokeColor=none;fillColor=none;align=center;verticalAlign=middle;whiteSpace=wrap;rounded=0;" parent="1" vertex="1">
          <mxGeometry x="372.5" y="1540" width="25" height="20" as="geometry" />
        </mxCell>
        <mxCell id="TwgpB9pHJR5N3uFKzqj1-96" value="10/10" style="text;html=1;strokeColor=none;fillColor=none;align=center;verticalAlign=middle;whiteSpace=wrap;rounded=0;" parent="1" vertex="1">
          <mxGeometry x="402.5" y="1470" width="25" height="20" as="geometry" />
        </mxCell>
        <mxCell id="TwgpB9pHJR5N3uFKzqj1-97" value="20" style="text;html=1;strokeColor=none;fillColor=none;align=center;verticalAlign=middle;whiteSpace=wrap;rounded=0;" parent="1" vertex="1">
          <mxGeometry x="350" y="1650" width="25" height="20" as="geometry" />
        </mxCell>
        <mxCell id="TwgpB9pHJR5N3uFKzqj1-98" value="20/20" style="text;html=1;strokeColor=none;fillColor=none;align=center;verticalAlign=middle;whiteSpace=wrap;rounded=0;" parent="1" vertex="1">
          <mxGeometry x="442.5" y="1540" width="25" height="20" as="geometry" />
        </mxCell>
        <mxCell id="TwgpB9pHJR5N3uFKzqj1-99" value="20" style="text;html=1;strokeColor=none;fillColor=none;align=center;verticalAlign=middle;whiteSpace=wrap;rounded=0;" parent="1" vertex="1">
          <mxGeometry x="410" y="1715" width="25" height="20" as="geometry" />
        </mxCell>
        <mxCell id="TwgpB9pHJR5N3uFKzqj1-100" value="20" style="text;html=1;strokeColor=none;fillColor=none;align=center;verticalAlign=middle;whiteSpace=wrap;rounded=0;" parent="1" vertex="1">
          <mxGeometry x="397.5" y="1800" width="25" height="20" as="geometry" />
        </mxCell>
        <mxCell id="TwgpB9pHJR5N3uFKzqj1-101" value="30/30" style="text;html=1;strokeColor=none;fillColor=none;align=center;verticalAlign=middle;whiteSpace=wrap;rounded=0;" parent="1" vertex="1">
          <mxGeometry x="587.5" y="1605" width="25" height="20" as="geometry" />
        </mxCell>
        <mxCell id="TwgpB9pHJR5N3uFKzqj1-102" value="10" style="text;html=1;strokeColor=none;fillColor=none;align=center;verticalAlign=middle;whiteSpace=wrap;rounded=0;" parent="1" vertex="1">
          <mxGeometry x="467.5" y="1650" width="25" height="20" as="geometry" />
        </mxCell>
        <mxCell id="TwgpB9pHJR5N3uFKzqj1-103" value="20" style="text;html=1;strokeColor=none;fillColor=none;align=center;verticalAlign=middle;whiteSpace=wrap;rounded=0;" parent="1" vertex="1">
          <mxGeometry x="527.5" y="1610" width="25" height="20" as="geometry" />
        </mxCell>
        <mxCell id="TwgpB9pHJR5N3uFKzqj1-104" value="" style="endArrow=classic;html=1;rounded=0;exitX=1;exitY=0.5;exitDx=0;exitDy=0;entryX=0;entryY=0.5;entryDx=0;entryDy=0;" parent="1" source="TwgpB9pHJR5N3uFKzqj1-67" target="TwgpB9pHJR5N3uFKzqj1-84" edge="1">
          <mxGeometry width="50" height="50" relative="1" as="geometry">
            <mxPoint x="557.5" y="1740" as="sourcePoint" />
            <mxPoint x="607.5" y="1690" as="targetPoint" />
          </mxGeometry>
        </mxCell>
        <mxCell id="TwgpB9pHJR5N3uFKzqj1-105" value="20" style="text;html=1;strokeColor=none;fillColor=none;align=center;verticalAlign=middle;whiteSpace=wrap;rounded=0;" parent="1" vertex="1">
          <mxGeometry x="562.5" y="1715" width="25" height="20" as="geometry" />
        </mxCell>
        <mxCell id="TwgpB9pHJR5N3uFKzqj1-106" value="10" style="text;html=1;strokeColor=none;fillColor=none;align=center;verticalAlign=middle;whiteSpace=wrap;rounded=0;" parent="1" vertex="1">
          <mxGeometry x="497.5" y="1790" width="25" height="20" as="geometry" />
        </mxCell>
        <mxCell id="TwgpB9pHJR5N3uFKzqj1-107" value="20" style="text;html=1;strokeColor=none;fillColor=none;align=center;verticalAlign=middle;whiteSpace=wrap;rounded=0;" parent="1" vertex="1">
          <mxGeometry x="587.5" y="1800" width="25" height="20" as="geometry" />
        </mxCell>
        <mxCell id="RvhigGGWQUE5Uoy9nkby-2" value="" style="endArrow=none;html=1;rounded=0;entryX=0.5;entryY=1;entryDx=0;entryDy=0;exitX=0;exitY=0;exitDx=0;exitDy=0;" parent="1" source="TwgpB9pHJR5N3uFKzqj1-12" target="TwgpB9pHJR5N3uFKzqj1-8" edge="1">
          <mxGeometry width="50" height="50" relative="1" as="geometry">
            <mxPoint x="352" y="1109.5" as="sourcePoint" />
            <mxPoint x="352" y="1040.5" as="targetPoint" />
          </mxGeometry>
        </mxCell>
        <mxCell id="RvhigGGWQUE5Uoy9nkby-4" value="89" style="text;html=1;strokeColor=none;fillColor=none;align=center;verticalAlign=middle;whiteSpace=wrap;rounded=0;" parent="1" vertex="1">
          <mxGeometry x="364" y="1045" width="25" height="20" as="geometry" />
        </mxCell>
        <mxCell id="rOQ0s8YiFcI2LC6zg2KF-1" value="" style="ellipse;whiteSpace=wrap;html=1;aspect=fixed;" vertex="1" parent="1">
          <mxGeometry x="334.75" y="-310" width="50" height="50" as="geometry" />
        </mxCell>
        <mxCell id="rOQ0s8YiFcI2LC6zg2KF-2" value="F" style="text;html=1;strokeColor=none;fillColor=none;align=center;verticalAlign=middle;whiteSpace=wrap;rounded=0;" vertex="1" parent="1">
          <mxGeometry x="347.25" y="-295" width="25" height="20" as="geometry" />
        </mxCell>
        <mxCell id="rOQ0s8YiFcI2LC6zg2KF-3" value="" style="ellipse;whiteSpace=wrap;html=1;aspect=fixed;" vertex="1" parent="1">
          <mxGeometry x="443.5" y="-355" width="50" height="50" as="geometry" />
        </mxCell>
        <mxCell id="rOQ0s8YiFcI2LC6zg2KF-4" value="D" style="text;html=1;strokeColor=none;fillColor=none;align=center;verticalAlign=middle;whiteSpace=wrap;rounded=0;" vertex="1" parent="1">
          <mxGeometry x="456" y="-340" width="25" height="20" as="geometry" />
        </mxCell>
        <mxCell id="rOQ0s8YiFcI2LC6zg2KF-7" value="" style="ellipse;whiteSpace=wrap;html=1;aspect=fixed;" vertex="1" parent="1">
          <mxGeometry x="330" y="-165" width="50" height="50" as="geometry" />
        </mxCell>
        <mxCell id="rOQ0s8YiFcI2LC6zg2KF-8" value="B" style="text;html=1;strokeColor=none;fillColor=none;align=center;verticalAlign=middle;whiteSpace=wrap;rounded=0;" vertex="1" parent="1">
          <mxGeometry x="342.5" y="-150" width="25" height="20" as="geometry" />
        </mxCell>
        <mxCell id="rOQ0s8YiFcI2LC6zg2KF-9" value="" style="ellipse;whiteSpace=wrap;html=1;aspect=fixed;" vertex="1" parent="1">
          <mxGeometry x="435" y="-215" width="50" height="50" as="geometry" />
        </mxCell>
        <mxCell id="rOQ0s8YiFcI2LC6zg2KF-10" value="C" style="text;html=1;strokeColor=none;fillColor=none;align=center;verticalAlign=middle;whiteSpace=wrap;rounded=0;" vertex="1" parent="1">
          <mxGeometry x="447.5" y="-200" width="25" height="20" as="geometry" />
        </mxCell>
        <mxCell id="rOQ0s8YiFcI2LC6zg2KF-11" value="" style="ellipse;whiteSpace=wrap;html=1;aspect=fixed;" vertex="1" parent="1">
          <mxGeometry x="562.5" y="-275" width="50" height="50" as="geometry" />
        </mxCell>
        <mxCell id="rOQ0s8YiFcI2LC6zg2KF-12" value="E" style="text;html=1;strokeColor=none;fillColor=none;align=center;verticalAlign=middle;whiteSpace=wrap;rounded=0;" vertex="1" parent="1">
          <mxGeometry x="575" y="-260" width="25" height="20" as="geometry" />
        </mxCell>
        <mxCell id="rOQ0s8YiFcI2LC6zg2KF-13" value="" style="ellipse;whiteSpace=wrap;html=1;aspect=fixed;" vertex="1" parent="1">
          <mxGeometry x="435" y="-90" width="50" height="50" as="geometry" />
        </mxCell>
        <mxCell id="rOQ0s8YiFcI2LC6zg2KF-14" value="A" style="text;html=1;strokeColor=none;fillColor=none;align=center;verticalAlign=middle;whiteSpace=wrap;rounded=0;" vertex="1" parent="1">
          <mxGeometry x="447.5" y="-75" width="25" height="20" as="geometry" />
        </mxCell>
        <mxCell id="rOQ0s8YiFcI2LC6zg2KF-15" value="" style="ellipse;whiteSpace=wrap;html=1;aspect=fixed;" vertex="1" parent="1">
          <mxGeometry x="556" y="-140" width="50" height="50" as="geometry" />
        </mxCell>
        <mxCell id="rOQ0s8YiFcI2LC6zg2KF-16" value="H" style="text;html=1;strokeColor=none;fillColor=none;align=center;verticalAlign=middle;whiteSpace=wrap;rounded=0;" vertex="1" parent="1">
          <mxGeometry x="568.5" y="-125" width="25" height="20" as="geometry" />
        </mxCell>
        <mxCell id="rOQ0s8YiFcI2LC6zg2KF-17" value="" style="ellipse;whiteSpace=wrap;html=1;aspect=fixed;" vertex="1" parent="1">
          <mxGeometry x="545" y="-20" width="50" height="50" as="geometry" />
        </mxCell>
        <mxCell id="rOQ0s8YiFcI2LC6zg2KF-18" value="G" style="text;html=1;strokeColor=none;fillColor=none;align=center;verticalAlign=middle;whiteSpace=wrap;rounded=0;" vertex="1" parent="1">
          <mxGeometry x="557.5" y="-5" width="25" height="20" as="geometry" />
        </mxCell>
        <mxCell id="rOQ0s8YiFcI2LC6zg2KF-19" value="" style="endArrow=none;html=1;rounded=0;entryX=0.5;entryY=1;entryDx=0;entryDy=0;exitX=0.5;exitY=0;exitDx=0;exitDy=0;" edge="1" parent="1" source="rOQ0s8YiFcI2LC6zg2KF-13" target="rOQ0s8YiFcI2LC6zg2KF-9">
          <mxGeometry width="50" height="50" relative="1" as="geometry">
            <mxPoint x="360" y="-110" as="sourcePoint" />
            <mxPoint x="410" y="-160" as="targetPoint" />
          </mxGeometry>
        </mxCell>
        <mxCell id="rOQ0s8YiFcI2LC6zg2KF-20" value="" style="endArrow=none;html=1;rounded=0;exitX=0;exitY=0.5;exitDx=0;exitDy=0;entryX=1;entryY=1;entryDx=0;entryDy=0;" edge="1" parent="1" source="rOQ0s8YiFcI2LC6zg2KF-17" target="rOQ0s8YiFcI2LC6zg2KF-13">
          <mxGeometry width="50" height="50" relative="1" as="geometry">
            <mxPoint x="370" y="-100" as="sourcePoint" />
            <mxPoint x="420" y="-150" as="targetPoint" />
          </mxGeometry>
        </mxCell>
        <mxCell id="rOQ0s8YiFcI2LC6zg2KF-21" value="" style="endArrow=none;html=1;rounded=0;entryX=0;entryY=0.5;entryDx=0;entryDy=0;exitX=1;exitY=0;exitDx=0;exitDy=0;" edge="1" parent="1" source="rOQ0s8YiFcI2LC6zg2KF-13" target="rOQ0s8YiFcI2LC6zg2KF-15">
          <mxGeometry width="50" height="50" relative="1" as="geometry">
            <mxPoint x="380" y="-90" as="sourcePoint" />
            <mxPoint x="430" y="-140" as="targetPoint" />
          </mxGeometry>
        </mxCell>
        <mxCell id="rOQ0s8YiFcI2LC6zg2KF-22" value="" style="endArrow=none;html=1;rounded=0;entryX=0.5;entryY=1;entryDx=0;entryDy=0;exitX=0.5;exitY=0;exitDx=0;exitDy=0;" edge="1" parent="1" source="rOQ0s8YiFcI2LC6zg2KF-17" target="rOQ0s8YiFcI2LC6zg2KF-15">
          <mxGeometry width="50" height="50" relative="1" as="geometry">
            <mxPoint x="390" y="-80" as="sourcePoint" />
            <mxPoint x="440" y="-130" as="targetPoint" />
          </mxGeometry>
        </mxCell>
        <mxCell id="rOQ0s8YiFcI2LC6zg2KF-23" value="" style="endArrow=none;html=1;rounded=0;entryX=0;entryY=0.5;entryDx=0;entryDy=0;exitX=1;exitY=0.5;exitDx=0;exitDy=0;" edge="1" parent="1" source="rOQ0s8YiFcI2LC6zg2KF-7" target="rOQ0s8YiFcI2LC6zg2KF-9">
          <mxGeometry width="50" height="50" relative="1" as="geometry">
            <mxPoint x="400" y="-70" as="sourcePoint" />
            <mxPoint x="450" y="-120" as="targetPoint" />
          </mxGeometry>
        </mxCell>
        <mxCell id="rOQ0s8YiFcI2LC6zg2KF-24" value="" style="endArrow=none;html=1;rounded=0;entryX=0.5;entryY=1;entryDx=0;entryDy=0;exitX=0.5;exitY=0;exitDx=0;exitDy=0;" edge="1" parent="1" source="rOQ0s8YiFcI2LC6zg2KF-7" target="rOQ0s8YiFcI2LC6zg2KF-1">
          <mxGeometry width="50" height="50" relative="1" as="geometry">
            <mxPoint x="395" y="-50" as="sourcePoint" />
            <mxPoint x="445" y="-100" as="targetPoint" />
          </mxGeometry>
        </mxCell>
        <mxCell id="rOQ0s8YiFcI2LC6zg2KF-27" value="" style="endArrow=none;html=1;rounded=0;entryX=0.5;entryY=1;entryDx=0;entryDy=0;exitX=0.5;exitY=0;exitDx=0;exitDy=0;" edge="1" parent="1" source="rOQ0s8YiFcI2LC6zg2KF-15" target="rOQ0s8YiFcI2LC6zg2KF-11">
          <mxGeometry width="50" height="50" relative="1" as="geometry">
            <mxPoint x="420" y="-50" as="sourcePoint" />
            <mxPoint x="470" y="-100" as="targetPoint" />
          </mxGeometry>
        </mxCell>
        <mxCell id="rOQ0s8YiFcI2LC6zg2KF-28" value="" style="endArrow=none;html=1;rounded=0;entryX=1;entryY=1;entryDx=0;entryDy=0;exitX=0;exitY=0;exitDx=0;exitDy=0;" edge="1" parent="1" source="rOQ0s8YiFcI2LC6zg2KF-15" target="rOQ0s8YiFcI2LC6zg2KF-9">
          <mxGeometry width="50" height="50" relative="1" as="geometry">
            <mxPoint x="430" y="-40" as="sourcePoint" />
            <mxPoint x="480" y="-90" as="targetPoint" />
          </mxGeometry>
        </mxCell>
        <mxCell id="rOQ0s8YiFcI2LC6zg2KF-29" value="" style="endArrow=none;html=1;rounded=0;entryX=0;entryY=0.5;entryDx=0;entryDy=0;exitX=1;exitY=0;exitDx=0;exitDy=0;" edge="1" parent="1" source="rOQ0s8YiFcI2LC6zg2KF-9" target="rOQ0s8YiFcI2LC6zg2KF-11">
          <mxGeometry width="50" height="50" relative="1" as="geometry">
            <mxPoint x="440" y="-30" as="sourcePoint" />
            <mxPoint x="490" y="-80" as="targetPoint" />
          </mxGeometry>
        </mxCell>
        <mxCell id="rOQ0s8YiFcI2LC6zg2KF-30" value="" style="endArrow=none;html=1;rounded=0;entryX=0;entryY=0;entryDx=0;entryDy=0;exitX=1;exitY=0.5;exitDx=0;exitDy=0;" edge="1" parent="1" source="rOQ0s8YiFcI2LC6zg2KF-3" target="rOQ0s8YiFcI2LC6zg2KF-11">
          <mxGeometry width="50" height="50" relative="1" as="geometry">
            <mxPoint x="450" y="-20" as="sourcePoint" />
            <mxPoint x="500" y="-70" as="targetPoint" />
          </mxGeometry>
        </mxCell>
        <mxCell id="rOQ0s8YiFcI2LC6zg2KF-31" value="" style="endArrow=none;html=1;rounded=0;entryX=0.5;entryY=1;entryDx=0;entryDy=0;exitX=0.5;exitY=0;exitDx=0;exitDy=0;" edge="1" parent="1" source="rOQ0s8YiFcI2LC6zg2KF-9" target="rOQ0s8YiFcI2LC6zg2KF-3">
          <mxGeometry width="50" height="50" relative="1" as="geometry">
            <mxPoint x="460" y="-10" as="sourcePoint" />
            <mxPoint x="510" y="-60" as="targetPoint" />
          </mxGeometry>
        </mxCell>
        <mxCell id="rOQ0s8YiFcI2LC6zg2KF-32" value="" style="endArrow=none;html=1;rounded=0;entryX=1;entryY=1;entryDx=0;entryDy=0;exitX=0;exitY=0;exitDx=0;exitDy=0;" edge="1" parent="1" source="rOQ0s8YiFcI2LC6zg2KF-9" target="rOQ0s8YiFcI2LC6zg2KF-1">
          <mxGeometry width="50" height="50" relative="1" as="geometry">
            <mxPoint x="470" as="sourcePoint" />
            <mxPoint x="520" y="-50" as="targetPoint" />
          </mxGeometry>
        </mxCell>
        <mxCell id="rOQ0s8YiFcI2LC6zg2KF-33" value="" style="endArrow=none;html=1;rounded=0;entryX=0;entryY=0.5;entryDx=0;entryDy=0;exitX=1;exitY=0;exitDx=0;exitDy=0;" edge="1" parent="1" source="rOQ0s8YiFcI2LC6zg2KF-1" target="rOQ0s8YiFcI2LC6zg2KF-3">
          <mxGeometry width="50" height="50" relative="1" as="geometry">
            <mxPoint x="454.75" y="10" as="sourcePoint" />
            <mxPoint x="418.25" y="-330" as="targetPoint" />
          </mxGeometry>
        </mxCell>
        <mxCell id="rOQ0s8YiFcI2LC6zg2KF-35" value="46" style="text;html=1;strokeColor=none;fillColor=none;align=center;verticalAlign=middle;whiteSpace=wrap;rounded=0;" vertex="1" parent="1">
          <mxGeometry x="481" y="-25" width="25" height="20" as="geometry" />
        </mxCell>
        <mxCell id="rOQ0s8YiFcI2LC6zg2KF-36" value="36" style="text;html=1;strokeColor=none;fillColor=none;align=center;verticalAlign=middle;whiteSpace=wrap;rounded=0;" vertex="1" parent="1">
          <mxGeometry x="581" y="-60" width="25" height="20" as="geometry" />
        </mxCell>
        <mxCell id="rOQ0s8YiFcI2LC6zg2KF-37" value="98" style="text;html=1;strokeColor=none;fillColor=none;align=center;verticalAlign=middle;whiteSpace=wrap;rounded=0;" vertex="1" parent="1">
          <mxGeometry x="502.5" y="-125" width="25" height="20" as="geometry" />
        </mxCell>
        <mxCell id="rOQ0s8YiFcI2LC6zg2KF-38" value="64" style="text;html=1;strokeColor=none;fillColor=none;align=center;verticalAlign=middle;whiteSpace=wrap;rounded=0;" vertex="1" parent="1">
          <mxGeometry x="520" y="-170" width="25" height="20" as="geometry" />
        </mxCell>
        <mxCell id="rOQ0s8YiFcI2LC6zg2KF-39" value="58" style="text;html=1;strokeColor=none;fillColor=none;align=center;verticalAlign=middle;whiteSpace=wrap;rounded=0;" vertex="1" parent="1">
          <mxGeometry x="587.5" y="-190" width="25" height="20" as="geometry" />
        </mxCell>
        <mxCell id="rOQ0s8YiFcI2LC6zg2KF-40" value="7" style="text;html=1;strokeColor=none;fillColor=none;align=center;verticalAlign=middle;whiteSpace=wrap;rounded=0;" vertex="1" parent="1">
          <mxGeometry x="440" y="-140" width="25" height="20" as="geometry" />
        </mxCell>
        <mxCell id="rOQ0s8YiFcI2LC6zg2KF-41" value="92" style="text;html=1;strokeColor=none;fillColor=none;align=center;verticalAlign=middle;whiteSpace=wrap;rounded=0;" vertex="1" parent="1">
          <mxGeometry x="510" y="-250" width="25" height="20" as="geometry" />
        </mxCell>
        <mxCell id="rOQ0s8YiFcI2LC6zg2KF-42" value="15" style="text;html=1;strokeColor=none;fillColor=none;align=center;verticalAlign=middle;whiteSpace=wrap;rounded=0;" vertex="1" parent="1">
          <mxGeometry x="527.5" y="-320" width="25" height="20" as="geometry" />
        </mxCell>
        <mxCell id="rOQ0s8YiFcI2LC6zg2KF-43" value="99" style="text;html=1;strokeColor=none;fillColor=none;align=center;verticalAlign=middle;whiteSpace=wrap;rounded=0;" vertex="1" parent="1">
          <mxGeometry x="443.5" y="-280" width="25" height="20" as="geometry" />
        </mxCell>
        <mxCell id="rOQ0s8YiFcI2LC6zg2KF-44" value="52" style="text;html=1;strokeColor=none;fillColor=none;align=center;verticalAlign=middle;whiteSpace=wrap;rounded=0;" vertex="1" parent="1">
          <mxGeometry x="397.5" y="-340" width="25" height="20" as="geometry" />
        </mxCell>
        <mxCell id="rOQ0s8YiFcI2LC6zg2KF-45" value="99" style="text;html=1;strokeColor=none;fillColor=none;align=center;verticalAlign=middle;whiteSpace=wrap;rounded=0;" vertex="1" parent="1">
          <mxGeometry x="325" y="-220" width="25" height="20" as="geometry" />
        </mxCell>
        <mxCell id="rOQ0s8YiFcI2LC6zg2KF-48" value="28" style="text;html=1;strokeColor=none;fillColor=none;align=center;verticalAlign=middle;whiteSpace=wrap;rounded=0;" vertex="1" parent="1">
          <mxGeometry x="389" y="-235" width="25" height="20" as="geometry" />
        </mxCell>
        <mxCell id="rOQ0s8YiFcI2LC6zg2KF-49" value="64" style="text;html=1;strokeColor=none;fillColor=none;align=center;verticalAlign=middle;whiteSpace=wrap;rounded=0;" vertex="1" parent="1">
          <mxGeometry x="401" y="-165" width="25" height="20" as="geometry" />
        </mxCell>
        <mxCell id="rOQ0s8YiFcI2LC6zg2KF-51" value="" style="ellipse;whiteSpace=wrap;html=1;aspect=fixed;" vertex="1" parent="1">
          <mxGeometry x="352.5" y="2000" width="50" height="50" as="geometry" />
        </mxCell>
        <mxCell id="rOQ0s8YiFcI2LC6zg2KF-52" value="1" style="text;html=1;strokeColor=none;fillColor=none;align=center;verticalAlign=middle;whiteSpace=wrap;rounded=0;" vertex="1" parent="1">
          <mxGeometry x="365" y="2015" width="25" height="20" as="geometry" />
        </mxCell>
        <mxCell id="rOQ0s8YiFcI2LC6zg2KF-53" value="" style="ellipse;whiteSpace=wrap;html=1;aspect=fixed;" vertex="1" parent="1">
          <mxGeometry x="472.5" y="2000" width="50" height="50" as="geometry" />
        </mxCell>
        <mxCell id="rOQ0s8YiFcI2LC6zg2KF-54" value="2" style="text;html=1;strokeColor=none;fillColor=none;align=center;verticalAlign=middle;whiteSpace=wrap;rounded=0;" vertex="1" parent="1">
          <mxGeometry x="485" y="2015" width="25" height="20" as="geometry" />
        </mxCell>
        <mxCell id="rOQ0s8YiFcI2LC6zg2KF-55" value="" style="ellipse;whiteSpace=wrap;html=1;aspect=fixed;" vertex="1" parent="1">
          <mxGeometry x="547.5" y="2000" width="50" height="50" as="geometry" />
        </mxCell>
        <mxCell id="rOQ0s8YiFcI2LC6zg2KF-56" value="3" style="text;html=1;strokeColor=none;fillColor=none;align=center;verticalAlign=middle;whiteSpace=wrap;rounded=0;" vertex="1" parent="1">
          <mxGeometry x="560" y="2015" width="25" height="20" as="geometry" />
        </mxCell>
        <mxCell id="rOQ0s8YiFcI2LC6zg2KF-57" value="" style="ellipse;whiteSpace=wrap;html=1;aspect=fixed;" vertex="1" parent="1">
          <mxGeometry x="410" y="2096" width="54" height="54" as="geometry" />
        </mxCell>
        <mxCell id="rOQ0s8YiFcI2LC6zg2KF-58" value="4" style="text;html=1;strokeColor=none;fillColor=none;align=center;verticalAlign=middle;whiteSpace=wrap;rounded=0;" vertex="1" parent="1">
          <mxGeometry x="422.5" y="2113" width="25" height="20" as="geometry" />
        </mxCell>
        <mxCell id="rOQ0s8YiFcI2LC6zg2KF-59" value="" style="ellipse;whiteSpace=wrap;html=1;aspect=fixed;" vertex="1" parent="1">
          <mxGeometry x="547.5" y="2100" width="50" height="50" as="geometry" />
        </mxCell>
        <mxCell id="rOQ0s8YiFcI2LC6zg2KF-60" value="5" style="text;html=1;strokeColor=none;fillColor=none;align=center;verticalAlign=middle;whiteSpace=wrap;rounded=0;" vertex="1" parent="1">
          <mxGeometry x="560" y="2115" width="25" height="20" as="geometry" />
        </mxCell>
        <mxCell id="rOQ0s8YiFcI2LC6zg2KF-71" value="" style="ellipse;whiteSpace=wrap;html=1;aspect=fixed;" vertex="1" parent="1">
          <mxGeometry x="800" y="2000" width="50" height="50" as="geometry" />
        </mxCell>
        <mxCell id="rOQ0s8YiFcI2LC6zg2KF-72" value="1" style="text;html=1;strokeColor=none;fillColor=none;align=center;verticalAlign=middle;whiteSpace=wrap;rounded=0;" vertex="1" parent="1">
          <mxGeometry x="812.5" y="2015" width="25" height="20" as="geometry" />
        </mxCell>
        <mxCell id="rOQ0s8YiFcI2LC6zg2KF-73" value="" style="ellipse;whiteSpace=wrap;html=1;aspect=fixed;" vertex="1" parent="1">
          <mxGeometry x="913.5" y="2000" width="50" height="50" as="geometry" />
        </mxCell>
        <mxCell id="rOQ0s8YiFcI2LC6zg2KF-74" value="2" style="text;html=1;strokeColor=none;fillColor=none;align=center;verticalAlign=middle;whiteSpace=wrap;rounded=0;" vertex="1" parent="1">
          <mxGeometry x="926" y="2015" width="25" height="20" as="geometry" />
        </mxCell>
        <mxCell id="rOQ0s8YiFcI2LC6zg2KF-75" value="" style="ellipse;whiteSpace=wrap;html=1;aspect=fixed;" vertex="1" parent="1">
          <mxGeometry x="800" y="2085" width="50" height="50" as="geometry" />
        </mxCell>
        <mxCell id="rOQ0s8YiFcI2LC6zg2KF-76" value="3" style="text;html=1;strokeColor=none;fillColor=none;align=center;verticalAlign=middle;whiteSpace=wrap;rounded=0;" vertex="1" parent="1">
          <mxGeometry x="812.5" y="2100" width="25" height="20" as="geometry" />
        </mxCell>
        <mxCell id="rOQ0s8YiFcI2LC6zg2KF-77" value="" style="ellipse;whiteSpace=wrap;html=1;aspect=fixed;" vertex="1" parent="1">
          <mxGeometry x="800" y="2190" width="50" height="50" as="geometry" />
        </mxCell>
        <mxCell id="rOQ0s8YiFcI2LC6zg2KF-78" value="4" style="text;html=1;strokeColor=none;fillColor=none;align=center;verticalAlign=middle;whiteSpace=wrap;rounded=0;" vertex="1" parent="1">
          <mxGeometry x="812.5" y="2205" width="25" height="20" as="geometry" />
        </mxCell>
        <mxCell id="rOQ0s8YiFcI2LC6zg2KF-79" value="" style="ellipse;whiteSpace=wrap;html=1;aspect=fixed;" vertex="1" parent="1">
          <mxGeometry x="913.5" y="2120" width="50" height="50" as="geometry" />
        </mxCell>
        <mxCell id="rOQ0s8YiFcI2LC6zg2KF-80" value="5" style="text;html=1;strokeColor=none;fillColor=none;align=center;verticalAlign=middle;whiteSpace=wrap;rounded=0;" vertex="1" parent="1">
          <mxGeometry x="926" y="2135" width="25" height="20" as="geometry" />
        </mxCell>
        <mxCell id="rOQ0s8YiFcI2LC6zg2KF-84" value="" style="endArrow=none;html=1;rounded=0;entryX=0;entryY=0.5;entryDx=0;entryDy=0;exitX=1;exitY=0.5;exitDx=0;exitDy=0;" edge="1" parent="1" source="rOQ0s8YiFcI2LC6zg2KF-51" target="rOQ0s8YiFcI2LC6zg2KF-53">
          <mxGeometry width="50" height="50" relative="1" as="geometry">
            <mxPoint x="610" y="2090" as="sourcePoint" />
            <mxPoint x="660" y="2040" as="targetPoint" />
          </mxGeometry>
        </mxCell>
        <mxCell id="rOQ0s8YiFcI2LC6zg2KF-85" value="" style="endArrow=none;html=1;rounded=0;entryX=0.5;entryY=1;entryDx=0;entryDy=0;exitX=0;exitY=0;exitDx=0;exitDy=0;" edge="1" parent="1" source="rOQ0s8YiFcI2LC6zg2KF-57" target="rOQ0s8YiFcI2LC6zg2KF-51">
          <mxGeometry width="50" height="50" relative="1" as="geometry">
            <mxPoint x="620" y="2100" as="sourcePoint" />
            <mxPoint x="670" y="2050" as="targetPoint" />
          </mxGeometry>
        </mxCell>
        <mxCell id="rOQ0s8YiFcI2LC6zg2KF-86" value="" style="endArrow=none;html=1;rounded=0;entryX=0.5;entryY=1;entryDx=0;entryDy=0;exitX=1;exitY=0;exitDx=0;exitDy=0;" edge="1" parent="1" source="rOQ0s8YiFcI2LC6zg2KF-57" target="rOQ0s8YiFcI2LC6zg2KF-53">
          <mxGeometry width="50" height="50" relative="1" as="geometry">
            <mxPoint x="630" y="2110" as="sourcePoint" />
            <mxPoint x="680" y="2060" as="targetPoint" />
          </mxGeometry>
        </mxCell>
        <mxCell id="rOQ0s8YiFcI2LC6zg2KF-87" value="" style="endArrow=none;html=1;rounded=0;exitX=0.5;exitY=0;exitDx=0;exitDy=0;entryX=0.5;entryY=1;entryDx=0;entryDy=0;" edge="1" parent="1" source="rOQ0s8YiFcI2LC6zg2KF-59" target="rOQ0s8YiFcI2LC6zg2KF-55">
          <mxGeometry width="50" height="50" relative="1" as="geometry">
            <mxPoint x="600" y="2090" as="sourcePoint" />
            <mxPoint x="580" y="2050" as="targetPoint" />
          </mxGeometry>
        </mxCell>
        <mxCell id="rOQ0s8YiFcI2LC6zg2KF-88" value="" style="endArrow=none;html=1;rounded=0;entryX=1;entryY=0.5;entryDx=0;entryDy=0;exitX=0;exitY=0.5;exitDx=0;exitDy=0;" edge="1" parent="1" source="rOQ0s8YiFcI2LC6zg2KF-59" target="rOQ0s8YiFcI2LC6zg2KF-57">
          <mxGeometry width="50" height="50" relative="1" as="geometry">
            <mxPoint x="540" y="2110" as="sourcePoint" />
            <mxPoint x="700" y="2080" as="targetPoint" />
          </mxGeometry>
        </mxCell>
        <mxCell id="rOQ0s8YiFcI2LC6zg2KF-89" value="" style="endArrow=none;html=1;rounded=0;entryX=1;entryY=0.5;entryDx=0;entryDy=0;exitX=0;exitY=0.5;exitDx=0;exitDy=0;" edge="1" parent="1" source="rOQ0s8YiFcI2LC6zg2KF-73" target="rOQ0s8YiFcI2LC6zg2KF-71">
          <mxGeometry width="50" height="50" relative="1" as="geometry">
            <mxPoint x="660" y="2140" as="sourcePoint" />
            <mxPoint x="710" y="2090" as="targetPoint" />
          </mxGeometry>
        </mxCell>
        <mxCell id="rOQ0s8YiFcI2LC6zg2KF-90" value="" style="endArrow=none;html=1;rounded=0;entryX=1;entryY=0;entryDx=0;entryDy=0;exitX=0;exitY=1;exitDx=0;exitDy=0;" edge="1" parent="1" source="rOQ0s8YiFcI2LC6zg2KF-73" target="rOQ0s8YiFcI2LC6zg2KF-75">
          <mxGeometry width="50" height="50" relative="1" as="geometry">
            <mxPoint x="999" y="2045" as="sourcePoint" />
            <mxPoint x="905" y="2045" as="targetPoint" />
          </mxGeometry>
        </mxCell>
        <mxCell id="rOQ0s8YiFcI2LC6zg2KF-91" value="" style="endArrow=none;html=1;rounded=0;entryX=0.5;entryY=1;entryDx=0;entryDy=0;exitX=0.5;exitY=0;exitDx=0;exitDy=0;" edge="1" parent="1" source="rOQ0s8YiFcI2LC6zg2KF-79" target="rOQ0s8YiFcI2LC6zg2KF-73">
          <mxGeometry width="50" height="50" relative="1" as="geometry">
            <mxPoint x="917" y="2090" as="sourcePoint" />
            <mxPoint x="823" y="2090" as="targetPoint" />
          </mxGeometry>
        </mxCell>
        <mxCell id="rOQ0s8YiFcI2LC6zg2KF-92" value="" style="endArrow=none;html=1;rounded=0;entryX=0.5;entryY=0;entryDx=0;entryDy=0;exitX=0.5;exitY=1;exitDx=0;exitDy=0;" edge="1" parent="1" source="rOQ0s8YiFcI2LC6zg2KF-75" target="rOQ0s8YiFcI2LC6zg2KF-77">
          <mxGeometry width="50" height="50" relative="1" as="geometry">
            <mxPoint x="1019" y="2065" as="sourcePoint" />
            <mxPoint x="925" y="2065" as="targetPoint" />
          </mxGeometry>
        </mxCell>
        <mxCell id="rOQ0s8YiFcI2LC6zg2KF-95" value="" style="endArrow=none;html=1;rounded=0;entryX=1;entryY=0.5;entryDx=0;entryDy=0;exitX=0;exitY=1;exitDx=0;exitDy=0;" edge="1" parent="1" source="rOQ0s8YiFcI2LC6zg2KF-79" target="rOQ0s8YiFcI2LC6zg2KF-77">
          <mxGeometry width="50" height="50" relative="1" as="geometry">
            <mxPoint x="871.3223304703363" y="2127.677669529664" as="sourcePoint" />
            <mxPoint x="809" y="2075" as="targetPoint" />
          </mxGeometry>
        </mxCell>
      </root>
    </mxGraphModel>
  </diagram>
</mxfile>
